<mxfile host="app.diagrams.net" modified="2023-11-26T14:43:24.719Z" agent="Mozilla/5.0 (X11; Ubuntu; Linux x86_64; rv:109.0) Gecko/20100101 Firefox/119.0" etag="5l0HPIq6i6UWpXVGRDk2" version="22.1.4" type="device">
  <diagram name="Page-1" id="-tETGwES6t3e2pbt9JLC">
    <mxGraphModel dx="2560" dy="1355" grid="1" gridSize="10" guides="1" tooltips="1" connect="1" arrows="1" fold="1" page="1" pageScale="1" pageWidth="827" pageHeight="1169" math="0" shadow="0">
      <root>
        <mxCell id="0" />
        <mxCell id="1" parent="0" />
        <mxCell id="9oYUy_fkPgBR0n7V9dYx-12" value="" style="rounded=0;whiteSpace=wrap;html=1;fillColor=none;strokeColor=#000000;" vertex="1" parent="1">
          <mxGeometry x="190" y="130" width="370" height="240" as="geometry" />
        </mxCell>
        <mxCell id="9oYUy_fkPgBR0n7V9dYx-14" value="" style="rounded=0;whiteSpace=wrap;html=1;fillColor=none;strokeColor=#000000;" vertex="1" parent="1">
          <mxGeometry x="190" y="30" width="370" height="60" as="geometry" />
        </mxCell>
        <mxCell id="9oYUy_fkPgBR0n7V9dYx-38" value="" style="rounded=0;whiteSpace=wrap;html=1;fillColor=none;strokeColor=#000000;" vertex="1" parent="1">
          <mxGeometry x="520" y="400" width="270" height="390" as="geometry" />
        </mxCell>
        <mxCell id="9oYUy_fkPgBR0n7V9dYx-22" style="edgeStyle=orthogonalEdgeStyle;rounded=0;orthogonalLoop=1;jettySize=auto;html=1;entryX=0.5;entryY=0;entryDx=0;entryDy=0;strokeColor=#000000;" edge="1" parent="1" source="9oYUy_fkPgBR0n7V9dYx-1" target="9oYUy_fkPgBR0n7V9dYx-2">
          <mxGeometry relative="1" as="geometry" />
        </mxCell>
        <mxCell id="9oYUy_fkPgBR0n7V9dYx-1" value="Reunião de dados" style="rounded=0;whiteSpace=wrap;html=1;fillColor=none;strokeColor=#000000;" vertex="1" parent="1">
          <mxGeometry x="20" y="40" width="120" height="60" as="geometry" />
        </mxCell>
        <mxCell id="9oYUy_fkPgBR0n7V9dYx-23" style="edgeStyle=orthogonalEdgeStyle;rounded=0;orthogonalLoop=1;jettySize=auto;html=1;strokeColor=#000000;" edge="1" parent="1" source="9oYUy_fkPgBR0n7V9dYx-2" target="9oYUy_fkPgBR0n7V9dYx-21">
          <mxGeometry relative="1" as="geometry">
            <Array as="points">
              <mxPoint x="80" y="400" />
              <mxPoint x="235" y="400" />
            </Array>
          </mxGeometry>
        </mxCell>
        <mxCell id="9oYUy_fkPgBR0n7V9dYx-2" value="Pré-processamento&lt;br&gt;de dados" style="rounded=0;whiteSpace=wrap;html=1;fillColor=none;strokeColor=#000000;" vertex="1" parent="1">
          <mxGeometry x="20" y="170" width="120" height="90" as="geometry" />
        </mxCell>
        <mxCell id="9oYUy_fkPgBR0n7V9dYx-7" value="Substituição de dados ausentes por valor de fora do domínio " style="rounded=1;whiteSpace=wrap;html=1;fillColor=none;strokeColor=#000000;" vertex="1" parent="1">
          <mxGeometry x="220" y="40" width="220" height="40" as="geometry" />
        </mxCell>
        <mxCell id="9oYUy_fkPgBR0n7V9dYx-17" style="edgeStyle=orthogonalEdgeStyle;rounded=0;orthogonalLoop=1;jettySize=auto;html=1;entryX=1;entryY=0.5;entryDx=0;entryDy=0;strokeColor=#000000;" edge="1" parent="1" source="9oYUy_fkPgBR0n7V9dYx-12" target="9oYUy_fkPgBR0n7V9dYx-2">
          <mxGeometry relative="1" as="geometry" />
        </mxCell>
        <mxCell id="9oYUy_fkPgBR0n7V9dYx-16" style="edgeStyle=orthogonalEdgeStyle;rounded=0;orthogonalLoop=1;jettySize=auto;html=1;exitX=0;exitY=0.5;exitDx=0;exitDy=0;entryX=1;entryY=0.5;entryDx=0;entryDy=0;strokeColor=#000000;" edge="1" parent="1" source="9oYUy_fkPgBR0n7V9dYx-14" target="9oYUy_fkPgBR0n7V9dYx-2">
          <mxGeometry relative="1" as="geometry" />
        </mxCell>
        <mxCell id="9oYUy_fkPgBR0n7V9dYx-15" value="Fase 1" style="text;html=1;strokeColor=none;fillColor=none;align=center;verticalAlign=middle;whiteSpace=wrap;rounded=0;" vertex="1" parent="1">
          <mxGeometry x="470" y="45" width="70" height="30" as="geometry" />
        </mxCell>
        <mxCell id="9oYUy_fkPgBR0n7V9dYx-21" value="" style="rounded=0;whiteSpace=wrap;html=1;fillColor=none;strokeColor=#000000;" vertex="1" parent="1">
          <mxGeometry x="10" y="440" width="450" height="260" as="geometry" />
        </mxCell>
        <mxCell id="9oYUy_fkPgBR0n7V9dYx-46" style="edgeStyle=orthogonalEdgeStyle;rounded=0;orthogonalLoop=1;jettySize=auto;html=1;entryX=0;entryY=0.5;entryDx=0;entryDy=0;dashed=1;strokeColor=#000000;" edge="1" parent="1" source="9oYUy_fkPgBR0n7V9dYx-25" target="9oYUy_fkPgBR0n7V9dYx-30">
          <mxGeometry relative="1" as="geometry" />
        </mxCell>
        <mxCell id="9oYUy_fkPgBR0n7V9dYx-25" value="Dados de Treinamento" style="rounded=1;whiteSpace=wrap;html=1;fillColor=none;strokeColor=#000000;" vertex="1" parent="1">
          <mxGeometry x="140" y="460" width="300" height="40" as="geometry" />
        </mxCell>
        <mxCell id="9oYUy_fkPgBR0n7V9dYx-47" style="edgeStyle=orthogonalEdgeStyle;rounded=0;orthogonalLoop=1;jettySize=auto;html=1;entryX=0;entryY=0.5;entryDx=0;entryDy=0;dashed=1;strokeColor=#000000;" edge="1" parent="1" source="9oYUy_fkPgBR0n7V9dYx-26" target="9oYUy_fkPgBR0n7V9dYx-30">
          <mxGeometry relative="1" as="geometry" />
        </mxCell>
        <mxCell id="9oYUy_fkPgBR0n7V9dYx-26" value="Dados de Validação de Treinamento" style="rounded=1;whiteSpace=wrap;html=1;fillColor=none;strokeColor=#000000;" vertex="1" parent="1">
          <mxGeometry x="140" y="520" width="300" height="40" as="geometry" />
        </mxCell>
        <mxCell id="9oYUy_fkPgBR0n7V9dYx-48" style="edgeStyle=orthogonalEdgeStyle;rounded=0;orthogonalLoop=1;jettySize=auto;html=1;entryX=0;entryY=0.5;entryDx=0;entryDy=0;dashed=1;strokeColor=#000000;" edge="1" parent="1" source="9oYUy_fkPgBR0n7V9dYx-27" target="9oYUy_fkPgBR0n7V9dYx-36">
          <mxGeometry relative="1" as="geometry">
            <Array as="points">
              <mxPoint x="490" y="600" />
              <mxPoint x="490" y="734" />
            </Array>
          </mxGeometry>
        </mxCell>
        <mxCell id="9oYUy_fkPgBR0n7V9dYx-27" value="Dados de Teste de Amostra Externa" style="rounded=1;whiteSpace=wrap;html=1;fillColor=none;strokeColor=#000000;" vertex="1" parent="1">
          <mxGeometry x="140" y="580" width="300" height="40" as="geometry" />
        </mxCell>
        <mxCell id="9oYUy_fkPgBR0n7V9dYx-28" value="Dado Alvo (Consumo de Cimento)" style="rounded=1;whiteSpace=wrap;html=1;fillColor=none;strokeColor=#000000;" vertex="1" parent="1">
          <mxGeometry x="140" y="640" width="300" height="40" as="geometry" />
        </mxCell>
        <mxCell id="9oYUy_fkPgBR0n7V9dYx-34" style="edgeStyle=orthogonalEdgeStyle;rounded=0;orthogonalLoop=1;jettySize=auto;html=1;entryX=0.5;entryY=0;entryDx=0;entryDy=0;strokeColor=#000000;" edge="1" parent="1" source="9oYUy_fkPgBR0n7V9dYx-30" target="9oYUy_fkPgBR0n7V9dYx-31">
          <mxGeometry relative="1" as="geometry" />
        </mxCell>
        <mxCell id="9oYUy_fkPgBR0n7V9dYx-30" value="Treinamento utilizando otimizador estocástico" style="rounded=0;whiteSpace=wrap;html=1;fillColor=none;strokeColor=#000000;" vertex="1" parent="1">
          <mxGeometry x="540" y="469" width="210" height="70" as="geometry" />
        </mxCell>
        <mxCell id="9oYUy_fkPgBR0n7V9dYx-37" style="edgeStyle=orthogonalEdgeStyle;rounded=0;orthogonalLoop=1;jettySize=auto;html=1;entryX=0.5;entryY=0;entryDx=0;entryDy=0;strokeColor=#000000;" edge="1" parent="1" source="9oYUy_fkPgBR0n7V9dYx-31" target="9oYUy_fkPgBR0n7V9dYx-36">
          <mxGeometry relative="1" as="geometry" />
        </mxCell>
        <mxCell id="9oYUy_fkPgBR0n7V9dYx-31" value="Seleção do modelo de melhor performance baseado nos dados de validação (amostra interna) entre 10 modelos treinados" style="rounded=0;whiteSpace=wrap;html=1;fillColor=none;strokeColor=#000000;" vertex="1" parent="1">
          <mxGeometry x="540" y="584" width="210" height="70" as="geometry" />
        </mxCell>
        <mxCell id="9oYUy_fkPgBR0n7V9dYx-32" style="edgeStyle=orthogonalEdgeStyle;rounded=0;orthogonalLoop=1;jettySize=auto;html=1;entryX=1;entryY=0.5;entryDx=0;entryDy=0;strokeColor=#000000;" edge="1" parent="1" source="9oYUy_fkPgBR0n7V9dYx-30" target="9oYUy_fkPgBR0n7V9dYx-30">
          <mxGeometry relative="1" as="geometry">
            <Array as="points">
              <mxPoint x="645" y="429" />
              <mxPoint x="770" y="429" />
              <mxPoint x="770" y="504" />
            </Array>
          </mxGeometry>
        </mxCell>
        <mxCell id="9oYUy_fkPgBR0n7V9dYx-43" style="edgeStyle=orthogonalEdgeStyle;rounded=0;orthogonalLoop=1;jettySize=auto;html=1;entryX=1;entryY=0.5;entryDx=0;entryDy=0;strokeColor=#000000;" edge="1" parent="1" source="9oYUy_fkPgBR0n7V9dYx-38" target="9oYUy_fkPgBR0n7V9dYx-42">
          <mxGeometry relative="1" as="geometry" />
        </mxCell>
        <mxCell id="9oYUy_fkPgBR0n7V9dYx-33" value="x 10" style="text;html=1;align=center;verticalAlign=middle;resizable=0;points=[];autosize=1;strokeColor=none;fillColor=none;" vertex="1" parent="1">
          <mxGeometry x="680" y="400" width="50" height="30" as="geometry" />
        </mxCell>
        <mxCell id="9oYUy_fkPgBR0n7V9dYx-36" value="&lt;div&gt;Resultado parcial sobre&amp;nbsp;&lt;/div&gt;&lt;div&gt;dados de teste&lt;/div&gt;&lt;div&gt;(amostra externa)&lt;br&gt;&lt;/div&gt;" style="rounded=0;whiteSpace=wrap;html=1;fillColor=none;strokeColor=#000000;" vertex="1" parent="1">
          <mxGeometry x="540" y="699" width="210" height="70" as="geometry" />
        </mxCell>
        <mxCell id="9oYUy_fkPgBR0n7V9dYx-40" value="x 10" style="text;html=1;align=center;verticalAlign=middle;resizable=0;points=[];autosize=1;strokeColor=none;fillColor=none;" vertex="1" parent="1">
          <mxGeometry x="710" y="320" width="50" height="30" as="geometry" />
        </mxCell>
        <mxCell id="9oYUy_fkPgBR0n7V9dYx-41" value="&lt;div&gt;&lt;font style=&quot;font-size: 16px;&quot;&gt;Resultado&amp;nbsp; final&lt;/font&gt;&lt;font style=&quot;font-size: 14px;&quot;&gt;&amp;nbsp;&lt;/font&gt;&lt;/div&gt;&lt;div&gt;&lt;font style=&quot;font-size: 12px;&quot;&gt;(média)&lt;/font&gt;&lt;/div&gt;" style="rounded=0;whiteSpace=wrap;html=1;fillColor=none;strokeColor=#000000;" vertex="1" parent="1">
          <mxGeometry x="80" y="760" width="200" height="70" as="geometry" />
        </mxCell>
        <mxCell id="9oYUy_fkPgBR0n7V9dYx-44" style="edgeStyle=orthogonalEdgeStyle;rounded=0;orthogonalLoop=1;jettySize=auto;html=1;entryX=1;entryY=0.5;entryDx=0;entryDy=0;strokeColor=#000000;" edge="1" parent="1" source="9oYUy_fkPgBR0n7V9dYx-42" target="9oYUy_fkPgBR0n7V9dYx-41">
          <mxGeometry relative="1" as="geometry" />
        </mxCell>
        <mxCell id="9oYUy_fkPgBR0n7V9dYx-42" value="&lt;div&gt;Média de 10 resultados de dados de teste&lt;/div&gt;&lt;div&gt;do procedimento completo&lt;br&gt;&lt;/div&gt;" style="rounded=0;whiteSpace=wrap;html=1;fillColor=none;strokeColor=#000000;" vertex="1" parent="1">
          <mxGeometry x="380" y="830" width="190" height="60" as="geometry" />
        </mxCell>
        <mxCell id="9oYUy_fkPgBR0n7V9dYx-45" value="min(val_loss)" style="text;html=1;align=center;verticalAlign=middle;resizable=0;points=[];autosize=1;strokeColor=none;fillColor=none;" vertex="1" parent="1">
          <mxGeometry x="640" y="540" width="90" height="30" as="geometry" />
        </mxCell>
        <mxCell id="9oYUy_fkPgBR0n7V9dYx-49" style="edgeStyle=orthogonalEdgeStyle;rounded=0;orthogonalLoop=1;jettySize=auto;html=1;entryX=1;entryY=0.5;entryDx=0;entryDy=0;strokeColor=#000000;" edge="1" parent="1" source="9oYUy_fkPgBR0n7V9dYx-38" target="9oYUy_fkPgBR0n7V9dYx-38">
          <mxGeometry relative="1" as="geometry">
            <Array as="points">
              <mxPoint x="655" y="350" />
              <mxPoint x="810" y="350" />
              <mxPoint x="810" y="595" />
            </Array>
          </mxGeometry>
        </mxCell>
        <mxCell id="9oYUy_fkPgBR0n7V9dYx-8" value="Média Móvel Centrada (CMA)" style="rounded=1;whiteSpace=wrap;html=1;fillColor=none;strokeColor=#000000;" vertex="1" parent="1">
          <mxGeometry x="220" y="140" width="220" height="40" as="geometry" />
        </mxCell>
        <mxCell id="9oYUy_fkPgBR0n7V9dYx-9" value="Interpolação Linear" style="rounded=1;whiteSpace=wrap;html=1;fillColor=none;strokeColor=#000000;" vertex="1" parent="1">
          <mxGeometry x="220" y="200" width="220" height="40" as="geometry" />
        </mxCell>
        <mxCell id="9oYUy_fkPgBR0n7V9dYx-10" value="Interpolação Polinomial" style="rounded=1;whiteSpace=wrap;html=1;fillColor=none;strokeColor=#000000;" vertex="1" parent="1">
          <mxGeometry x="220" y="260" width="220" height="40" as="geometry" />
        </mxCell>
        <mxCell id="9oYUy_fkPgBR0n7V9dYx-11" value="Coluna “Sazonalidade”" style="rounded=1;whiteSpace=wrap;html=1;fillColor=none;strokeColor=#000000;" vertex="1" parent="1">
          <mxGeometry x="220" y="320" width="220" height="40" as="geometry" />
        </mxCell>
        <mxCell id="9oYUy_fkPgBR0n7V9dYx-13" value="&lt;div&gt;Fases 2 e 3&lt;/div&gt;" style="text;html=1;strokeColor=none;fillColor=none;align=center;verticalAlign=middle;whiteSpace=wrap;rounded=0;" vertex="1" parent="1">
          <mxGeometry x="470" y="235" width="70" height="30" as="geometry" />
        </mxCell>
        <mxCell id="9oYUy_fkPgBR0n7V9dYx-51" value="Separação dos dados de entrada em:" style="text;html=1;strokeColor=none;fillColor=none;align=center;verticalAlign=middle;whiteSpace=wrap;rounded=0;" vertex="1" parent="1">
          <mxGeometry x="30" y="539" width="90" height="60" as="geometry" />
        </mxCell>
      </root>
    </mxGraphModel>
  </diagram>
</mxfile>
